<svg width="512" height="512" xmlns="http://www.w3.org/2000/svg">
  <path fill="#007ACC" d="M0 0v512h512V0z"/>
  <circle fill="#00D8FF" cx="255.6" cy="255.6" r="42.8"/>
  <path fill="none" stroke="#00D8FF" stroke-width="20.47" stroke-miterlimit="10" d="
    M255.5 168.58c57.46 0 110.83 8.24 151.07 22.1 48.49 16.68 78.3 42 78.3 64.9 0 23.88-31.6 50.76-83.66 68.01-39.37 13.05-91.17 19.85-145.71 19.85-55.92 0-108.87-6.4-148.68-20-50.36-17.2-80.7-44.43-80.7-67.86 0-22.72 28.47-47.83 76.27-64.5 40.4-14.07 95.09-22.5 153.1-22.5z
    M179.76 212.33c28.7-49.77 62.5-91.89 94.62-119.83 38.68-33.66 75.49-46.85 95.34-35.4 20.68 11.92 28.18 52.72 17.12 106.45-8.37 40.62-28.36 88.89-55.6 136.14-27.94 48.44-59.93 91.11-91.59 118.8-40.08 35.02-78.82 47.7-99.11 36-19.69-11.35-27.21-48.55-17.77-98.29 7.98-42.02 28-93.61 56.98-143.87z
    M179.83 299.81c-28.78-49.72-48.4-100.04-56.56-141.8-9.85-50.34-2.89-88.81 16.94-100.3 20.67-11.96 59.76 1.92 100.77 38.34C272 123.58 303.85 165 331.17 212.2c28.01 48.4 49.01 97.42 57.18 138.69 10.33 52.2 1.97 92.1-18.3 103.84-19.67 11.38-55.66-.67-94.04-33.69-32.42-27.9-67.11-71.02-96.18-121.23z"/>
  <path d="
    M113.22 257.7l-.16 20.96h66.64v189.36h47.14V278.66h66.64V258.1c0-11.38-.24-20.88-.58-21.12-.24-.34-40.8-.5-89.96-.4l-89.48.24-.24 20.88z
    m299.92-21.5a63.74 63.74 0 0 1 32 18.46c4.72 5.04 11.72 14.22 12.28 16.42.16.66-22.1 15.6-35.6 23.98-.48.32-2.42-1.8-4.62-5.04-6.6-9.6-13.5-13.74-24.06-14.46-15.52-1.06-25.52 7.06-25.44 20.64 0 3.98.58 6.34 2.2 9.6 3.4 7.06 9.76 11.28 29.66 19.9 36.66 15.76 52.34 26.16 62.1 40.96 10.88 16.5 13.32 42.82 5.92 62.4-8.12 21.3-28.28 35.76-56.64 40.56-8.78 1.54-29.6 1.3-39-.4-20.58-3.66-40.08-13.8-52.1-27.14-4.72-5.2-13.9-18.78-13.34-19.76a40.6 40.6 0 0 1 4.72-3c2.28-1.3 10.9-6.26 19-10.98l14.72-8.52 3.1 4.54c4.3 6.6 13.74 15.6 19.42 18.6 16.34 8.62 38.76 7.4 49.8-2.5 4.74-4.32 6.68-8.8 6.68-15.36 0-5.94-.72-8.54-3.8-13-4-5.7-12.12-10.5-35.2-20.48-26.42-11.4-37.8-18.46-48.2-29.68-6-6.5-11.7-16.9-14.06-25.6-1.96-7.22-2.44-25.34-.9-32.66 5.46-25.52 24.72-43.32 52.5-48.6 9.02-1.7 30-1.06 38.86 1.14z" fill="#FFF"/>
</svg>
